<svg fill="none" height="10" viewBox="0 0 15 10" width="15" xmlns="http://www.w3.org/2000/svg"><g fill="#1d1d1d"><path d="m4.15148 7.54185c.20757 0 .38055-.0346.55353-.06919.17298-.0346.34595-.10379.48434-.20758.13838-.10378.24217-.20757.31136-.38055.06919-.13838.10378-.34595.10378-.58812 0-.48434-.13838-.7957-.38055-1.00328-.27676-.20757-.62272-.31136-1.03787-.31136h-2.17952v2.52548h2.14493zm-.10379-3.87471c.34596 0 .65732-.06919.89949-.24217s.34595-.44974.34595-.8303c0-.20757-.03459-.38055-.10378-.51893-.0692-.13838-.17298-.24217-.31136-.31136-.13839-.06919-.27677-.13838-.44975-.17298s-.34595-.0346-.51893-.0346h-1.90276v2.14493h2.04114zm.24217-3.66714c.44974 0 .83029.0345956 1.17625.103787.34596.069191.65732.207574.93408.380552.24217.172978.44975.415148.58813.691911.13838.27677.20757.65732.20757 1.07247 0 .44974-.10378.83029-.31136 1.14165-.20757.31136-.51893.55353-.93408.76111.55353.17298.96868.44974 1.24544.86489.27677.41515.41515.89948.41515 1.45302 0 .44974-.10379.86489-.27676 1.21084-.17298.34596-.41515.62272-.72651.8303-.31136.20757-.65732.38055-1.03787.48434-.38055.10378-.7957.13838-1.17625.13838h-4.39365v-9.13325z"/><path d="m12.5581 4.04768c-.2075-.24217-.5881-.38055-1.0378-.38055-.2768 0-.519.0346-.7265.13838-.173.10379-.346.20758-.4498.38056-.1038.13838-.2075.31136-.2421.44974-.0346.20757-.0692.34596-.0692.48434h2.9406c-.0346-.48434-.173-.8303-.4152-1.07247zm-2.0757 3.49416c.2768.27677.6573.41515 1.1763.41515.3805 0 .6919-.10379.934-.27676.2768-.17298.4152-.38056.4844-.58813h1.5914c-.2422.7957-.6573 1.34923-1.1763 1.69519-.5189.34595-1.1762.51893-1.9027.51893-.519 0-1.0033-.06919-1.4185-.24217-.4151-.17298-.76106-.41515-1.07242-.72651-.27676-.31136-.51893-.65732-.65731-1.10706-.17298-.41515-.24217-.89948-.24217-1.41842 0-.48434.06919-.96868.24217-1.38382.17297-.41515.38055-.7957.69191-1.10706.31136-.31137.65732-.55354 1.07242-.72651.4152-.17298.8649-.27677 1.3839-.27677.5535 0 1.0378.10379 1.453.31136.4151.20758.7611.51894 1.0379.86489.2767.38056.4497.7957.5881 1.24545.1038.48433.173.96867.1384 1.45301h-4.7742c0 .58813.1729 1.07247.4497 1.34923z"/><path d="m9.6521.622711v.899489h3.7017v-.899489z"/></g></svg>