<svg fill="none" height="13" viewBox="0 0 13 13" width="13" xmlns="http://www.w3.org/2000/svg"><path d="m6.49999 1.17119c1.73558 0 1.94114.00661 2.62654.03788.63375.02893.97787.13482 1.20697.22381.3034.11791.5199.25879.7474.48623.2274.22744.3683.444.4862.74738.089.22906.1949.57323.2238 1.20695.0313.68543.0379.89099.0379 2.62657 0 1.73559-.0066 1.94115-.0379 2.62655-.0289.63374-.1348.97794-.2238 1.20694-.1179.3034-.2588.52-.4862.7474-.2275.2275-.444.3683-.7474.4862-.2291.089-.57322.1949-1.20697.2239-.68529.0312-.89086.0378-2.62654.0378-1.73569 0-1.94125-.0066-2.62655-.0378-.63374-.029-.97791-.1349-1.20695-.2239-.30341-.1179-.51996-.2587-.7474-.4862-.22745-.2274-.36832-.444-.48621-.7474-.08902-.229-.19491-.5732-.22383-1.20692-.03128-.68542-.03788-.89098-.03788-2.62657 0-1.73558.0066-1.94114.03788-2.62654.02892-.63375.13481-.97792.22383-1.20698.11789-.30338.25876-.51994.48621-.74738.22744-.22744.44399-.36832.7474-.48623.22904-.08899.57321-.19488 1.20693-.22381.68542-.03127.89098-.03788 2.62657-.03788zm0-1.17119c-1.76531 0-1.98664.00748252-2.67993.0391155-.69188.0315814-1.16436.1414455-1.57783.3021395-.42744.166111-.78992.388368-1.15128.749725-.361353.36135-.583609.72384-.749721 1.15127-.160694.41348-.2705579.88596-.3021393 1.57783-.03163298.69327-.0390897.91463-.0390897 2.67993 0 1.76531.00745672 1.98666.0390897 2.67993.0315814.69188.1414453 1.16436.3021393 1.57786.166112.4274.388368.7899.749721 1.1512.36136.3614.72384.5837 1.15128.7498.41347.1607.88595.2705 1.57783.3021.69329.0316.91462.0391 2.67993.0391 1.7653 0 1.98666-.0075 2.67993-.0391.69187-.0316 1.16438-.1414 1.57778-.3021.4275-.1661.79-.3884 1.1513-.7498.3614-.3613.5836-.7238.7497-1.1512.1607-.4135.2706-.88598.3022-1.57786.0316-.69327.0391-.91462.0391-2.67993 0-1.7653-.0075-1.98666-.0391-2.67993-.0316-.69187-.1415-1.16435-.3022-1.57783-.1661-.42743-.3883-.78992-.7497-1.15127-.3613-.361357-.7238-.583614-1.1513-.749725-.4134-.160694-.88591-.2705581-1.57778-.3021395-.69327-.03163298-.91463-.0391155-2.67993-.0391155zm0 3.16216c-1.84344 0-3.33785 1.49442-3.33785 3.33785 0 1.84344 1.49441 3.33785 3.33785 3.33785 1.84343 0 3.33785-1.49441 3.33785-3.33785 0-1.84343-1.49442-3.33785-3.33785-3.33785zm0 5.50453c-1.19661 0-2.16668-.97007-2.16668-2.16668s.97007-2.16668 2.16668-2.16668 2.16668.97007 2.16668 2.16668-.97007 2.16668-2.16668 2.16668zm4.24971-5.6364c0 .43079-.3492.78002-.77999.78002s-.78002-.34923-.78002-.78002.34923-.77999.78002-.77999.77999.3492.77999.77999z" fill="#1d1d1d"/></svg>